# xmcd CD database file
#
# Track frame offsets:
#	150
#	15829
#	27378
#	41251
#	52643
#	67976
#	79662
#	91542
#	106104
#	121784
#	134334
#
# Disc length: 1968 seconds
#
# Revision: 0
# Processed by: cddbd v1.5.2PL0 Copyright (c) Steve Scherf et al.
# Submitted via: CDex 1.70beta2
#
DISCID=6b07ae0b
DTITLE=Cruise-N-Country - Cdn. - OVM - Renfrew, ON - Making Memories
DYEAR=2010
DGENRE=Country
TTITLE0=As Always Marie
TTITLE1=Before She Made Me Crawl
TTITLE2=Speak Of The Devil (And She Walks In)
TTITLE3=My Shoes Keep Walking Back To You
TTITLE4=Memory No 1
TTITLE5=Maple Sugar
TTITLE6=A Way To Survive
TTITLE7=Star Crossed Lovers
TTITLE8=I Never Go Around Mirrors
TTITLE9=Will I Do ('Til The Real Thing Comes Along)
TTITLE10=Life Turned Her That Way
EXTD=YEAR: 2010
EXTT0=
EXTT1=
EXTT2=
EXTT3=
EXTT4=
EXTT5=
EXTT6=
EXTT7=
EXTT8=
EXTT9=
EXTT10=
PLAYORDER=
